<svg width="131" height="40" viewBox="0 0 131 40" fill="none" xmlns="http://www.w3.org/2000/svg">
<g clip-path="url(#clip0_2557_3505)">
<path d="M73.7173 29.1864H78.5916L81.5696 14.6324H85.225L85.7639 11.9248H82.1787L82.3146 11.3157C82.5174 10.1676 82.9237 8.87858 84.7511 8.87858C85.8354 8.87858 86.8502 8.94618 87.8649 9.42009L88.4071 6.57729C87.2762 6.17825 86.0862 5.97213 84.8869 5.96753C80.9605 5.96753 78.2535 8.26945 77.2375 11.9248H75.5453L75.0038 14.6324H76.6959L73.7173 29.1864Z" fill="#EA1D2C"/>
<path d="M89.1516 25.667C94.9054 25.667 98.8995 20.4541 98.8995 16.1895C98.8995 13.0081 95.9885 11.6539 93.1457 11.6539C86.8484 11.6539 83.3978 17.2758 83.3978 21.1314C83.3978 24.3129 86.3764 25.667 89.1516 25.667ZM104.587 25.667C110.341 25.667 114.335 20.4541 114.335 16.1895C114.335 13.0081 111.356 11.6539 108.513 11.6539C102.218 11.6539 98.7656 17.2726 98.7656 21.1314C98.7656 24.3129 101.812 25.667 104.587 25.667ZM122.255 25.3959H127.061L130.986 6.24133H126.112L124.961 11.9276L122.93 11.7247C118.192 11.7247 113.86 17.8166 113.86 22.1494C113.86 23.9092 115.008 25.6696 116.974 25.6696C119.749 25.6696 121.712 24.3155 122.523 22.9614H122.793L122.255 25.3959ZM107.226 35.4826C103.443 38.617 98.5837 40.1476 93.6872 39.7471C87.256 39.3408 82.6528 34.3989 81.8408 29.1866H82.1113C83.6006 32.4395 87.1884 35.4826 91.5887 35.9558C96.0535 36.4973 101.404 34.4671 104.315 31.6913L101.066 29.1866H110.881L108.713 39.6119L107.291 35.5502L107.226 35.4826Z" fill="#EA1D2C"/>
</g>
<path d="M8.26254 26.0723C8.23807 26.1982 8.18045 26.3061 8.08968 26.396C8.00241 26.468 7.88549 26.5039 7.73892 26.5039H3.78142C3.65316 26.5039 3.55023 26.468 3.4726 26.396C3.41679 26.3061 3.40113 26.1982 3.4256 26.0723L7.04391 7.45768C7.07188 7.31379 7.1295 7.20588 7.21677 7.13394C7.32236 7.062 7.43928 7.02603 7.56754 7.02603H20.8417C20.9882 7.02603 21.0912 7.062 21.1505 7.13394C21.2098 7.20588 21.2254 7.31379 21.1975 7.45768L20.4948 11.0727C20.4703 11.1986 20.4127 11.3065 20.3219 11.3964C20.2347 11.4684 20.1177 11.5043 19.9712 11.5043H11.0943L10.3339 15.4161H17.8916C18.0382 15.4161 18.1411 15.4521 18.2004 15.524C18.2597 15.5959 18.2754 15.7039 18.2474 15.8477L17.5448 19.4628C17.5203 19.5886 17.4627 19.6966 17.3719 19.7865C17.2846 19.8584 17.1677 19.8944 17.0211 19.8944H9.4634L8.26254 26.0723ZM27.2004 26.9086C25.3316 26.9086 23.8093 26.5399 22.6334 25.8025C21.4611 25.0471 20.7129 23.995 20.3888 22.6461C20.3731 22.5382 20.3688 22.4663 20.3758 22.4303C20.4037 22.2864 20.5181 22.1695 20.7188 22.0796L24.2711 20.4879L24.5015 20.434C24.648 20.434 24.7623 20.5059 24.8443 20.6498C25.166 21.3512 25.5793 21.8638 26.0844 22.1875C26.6113 22.4932 27.2594 22.6461 28.029 22.6461C28.8534 22.6461 29.5135 22.5022 30.0092 22.2145C30.5266 21.9087 30.8326 21.5131 30.927 21.0275C31.0318 20.4879 30.8793 20.0473 30.4694 19.7056C30.0594 19.3638 29.3659 19.0671 28.3888 18.8153C27.1361 18.4736 26.0661 18.0869 25.179 17.6552C24.2953 17.2056 23.6041 16.5671 23.1054 15.7398C22.6101 14.8945 22.4901 13.8154 22.7453 12.5025C22.9515 11.4414 23.426 10.4612 24.1688 9.56194C24.9299 8.66268 25.9108 7.95227 27.1115 7.4307C28.334 6.89114 29.6964 6.62137 31.1988 6.62137C33.031 6.62137 34.4835 6.97208 35.5564 7.6735C36.6476 8.37492 37.3619 9.31914 37.6991 10.5062C37.7148 10.6141 37.7209 10.677 37.7174 10.695C37.6929 10.8209 37.5768 10.9468 37.3691 11.0727L33.8273 12.6104C33.7252 12.6644 33.6375 12.6913 33.5642 12.6913C33.4359 12.6913 33.34 12.6194 33.2764 12.4755C32.9782 11.936 32.5879 11.5403 32.1055 11.2885C31.6449 11.0187 31.0665 10.8838 30.3703 10.8838C29.6557 10.8838 29.0799 11.0187 28.6427 11.2885C28.2273 11.5403 27.9794 11.873 27.899 12.2867C27.8116 12.7363 27.9249 13.096 28.2389 13.3658C28.5564 13.6176 29.1504 13.8604 30.0211 14.0942C31.4099 14.4899 32.5775 14.9395 33.524 15.4431C34.4739 15.9287 35.2022 16.6121 35.7088 17.4934C36.2338 18.3747 36.3669 19.4807 36.1082 20.8116C35.8914 21.9267 35.3898 22.9519 34.6034 23.8871C33.8205 24.8043 32.7886 25.5417 31.5076 26.0993C30.2485 26.6388 28.8127 26.9086 27.2004 26.9086ZM46.3377 26.1532C46.219 26.387 46.0314 26.5039 45.7749 26.5039H41.1028C40.8463 26.5039 40.7151 26.378 40.709 26.1262L40.15 7.51163L40.1762 7.37674C40.2217 7.14294 40.3726 7.02603 40.6292 7.02603H44.834C45.1088 7.02603 45.2492 7.15193 45.2553 7.40372L45.2915 20.0832L50.399 9.64287C50.5177 9.40906 50.7053 9.29216 50.9619 9.29216H54.5346C54.7911 9.29216 54.9333 9.40906 54.9611 9.64287L56.0647 20.0832L61.1402 7.40372C61.2441 7.15193 61.4335 7.02603 61.7083 7.02603H65.5009C65.6475 7.02603 65.7487 7.071 65.8045 7.16092C65.8603 7.25085 65.8559 7.36775 65.7913 7.51163L57.9956 26.1262C57.8917 26.378 57.7115 26.5039 57.455 26.5039H52.783C52.5265 26.5039 52.3843 26.387 52.3564 26.1532L51.2854 16.2524L46.3377 26.1532Z" fill="#EA1D2C"/>
<defs>
<clipPath id="clip0_2557_3505">
<rect width="57.6283" height="34.0325" fill="white" transform="translate(73.3008 5.96753)"/>
</clipPath>
</defs>
</svg>
